# xmcd
#
# Track frame offsets: 
#        150
#        15267
#        38469
#        56917
#        80398
#        100603
#        120965
#        133825
#        146034
#        154932
#        175309
#        192971
#        212053
#        224213
#        239298
#        252784
#        274180
#        292250
#        299307
#
# Disc length: 4339 seconds
#
# Revision: 0
# Processed by: cddbd v1.5.2PL0 Copyright (c) Steve Scherf et al.
# Submitted via: ExactAudioCopy v1.0b3
#
DISCID=2010f113
DTITLE=Zapadni Kolodvor Band - Zapadni Kolodvor
DYEAR=2014
DGENRE=Pop
TTITLE0=The Entertainer - Instrumental
TTITLE1=Protuletje Se Otpira - Rade Serbedzija
TTITLE2=Moderato Cantabile - Arsen Dedic
TTITLE3=Gipsy Song - Vlatko Stefanovski
TTITLE4=Czardas - Instrumental
TTITLE5=Umjesto Koga Roza Cvjeti - Vlado Kreslin
TTITLE6=Puna Je Pula - Livio Morosin i Maja Posavec
TTITLE7=Brez Sramu - Jure Ivanusic
TTITLE8=Polka - Instrumental
TTITLE9=Jos Dugo, Dugo - Jana Stojanovska
TTITLE10=Samo Jednom Se Ljubi - Ricardo Luque
TTITLE11=Panonske Tresnje - Rade Serbedzija
TTITLE12=Ples Sa Sabljama - Instrumental
TTITLE13=Djevojka Iz Moga Kraja - Arsen Dedic
TTITLE14=Pitas Gdje Je Moja Ljubav - Lucija Serbedzija
TTITLE15=Pruzi Mi Ruku - Instrumental
TTITLE16=Pjevaj Mi In Poj - Vlado Kreslin
TTITLE17=Hora Staccato - Instrumental
TTITLE18=Ostavljena (Live) Severina i Vlatko Stefanovski
EXTD=
EXTT0=
EXTT1=
EXTT2=
EXTT3=
EXTT4=
EXTT5=
EXTT6=
EXTT7=
EXTT8=
EXTT9=
EXTT10=
EXTT11=
EXTT12=
EXTT13=
EXTT14=
EXTT15=
EXTT16=
EXTT17=
EXTT18=
PLAYORDER=
